<?xml version="1.0" standalone="no"?>
<!DOCTYPE svg PUBLIC "-//W3C//DTD SVG 20010904//EN"
 "http://www.w3.org/TR/2001/REC-SVG-20010904/DTD/svg10.dtd">
<svg version="1.0" xmlns="http://www.w3.org/2000/svg"
 width="512.000000pt" height="512.000000pt" viewBox="0 0 512.000000 512.000000"
 preserveAspectRatio="xMidYMid meet">

<g transform="translate(0.000000,512.000000) scale(0.100000,-0.100000)"
fill="#000000" stroke="none">
<path d="M2123 4599 c-44 -13 -90 -62 -103 -109 -7 -27 -10 -247 -8 -663 l3
-624 30 -49 c19 -29 49 -60 78 -78 41 -25 59 -29 142 -34 l95 -5 0 -161 c0
-88 -5 -294 -10 -456 -25 -746 -59 -1152 -117 -1375 -28 -109 -34 -214 -15
-282 30 -103 132 -197 254 -234 78 -24 132 -18 219 27 175 88 231 238 174 468
-50 206 -81 497 -105 991 -9 194 -30 852 -30 971 l0 51 86 6 c105 6 162 37
209 111 l30 49 0 646 0 646 -23 37 c-65 104 -222 96 -272 -15 -18 -39 -20 -70
-20 -469 l0 -428 -25 0 -24 0 -3 444 c-3 506 1 478 -91 524 -57 29 -112 23
-158 -15 -60 -51 -59 -42 -59 -518 l0 -435 -25 0 -24 0 -3 438 c-3 416 -4 439
-23 470 -36 60 -115 91 -182 71z m437 -571 c0 -463 -1 -456 54 -508 21 -19 40
-25 90 -28 75 -5 117 13 146 61 19 30 20 53 20 468 0 441 2 465 36 452 12 -4
14 -107 14 -624 l0 -618 -24 -28 c-23 -27 -27 -28 -143 -31 -89 -3 -122 -8
-135 -20 -22 -18 -23 -138 -8 -647 24 -798 59 -1230 120 -1481 17 -67 30 -139
30 -161 0 -105 -110 -214 -216 -215 -35 0 -107 33 -142 66 -64 57 -79 159 -42
290 68 248 111 822 129 1721 5 253 4 398 -2 413 -13 28 -25 31 -169 34 -113 3
-119 4 -145 31 l-28 27 -3 598 c-1 328 0 607 3 620 6 26 40 30 49 6 3 -9 6
-208 6 -442 0 -406 1 -429 20 -459 27 -44 68 -63 139 -63 50 0 65 4 92 27 59
50 59 51 59 522 0 334 3 430 13 434 35 13 37 -6 37 -445z"/>
</g>
</svg>
